<svg xmlns="http://www.w3.org/2000/svg" viewBox="0 0 200 200" width="200" height="200">
  <!-- Vault/Safe outer structure -->
  <rect x="10" y="10" width="180" height="180" rx="12" fill="#4a5568" stroke="#2d3748" stroke-width="4"/>
  
  <!-- Vault door inner panel -->
  <rect x="22" y="22" width="156" height="156" rx="10" fill="#718096" stroke="#2d3748" stroke-width="3"/>
  
  <!-- Vault circular lock mechanism -->
  <circle cx="100" cy="65" r="20" fill="#2d3748" stroke="#1a202c" stroke-width="3"/>
  <circle cx="100" cy="65" r="14" fill="#4a5568"/>
  <line x1="100" y1="65" x2="100" y2="54" stroke="#1a202c" stroke-width="3" stroke-linecap="round"/>
  
  <!-- Vault handle -->
  <rect x="140" y="58" width="28" height="14" rx="4" fill="#2d3748"/>
  
  <!-- Game Controller -->
  <!-- Controller body -->
  <ellipse cx="100" cy="130" rx="50" ry="28" fill="#34d399" stroke="#10b981" stroke-width="3"/>
  
  <!-- Left grip -->
  <path d="M 50 130 Q 42 137 45 148" fill="none" stroke="#10b981" stroke-width="12" stroke-linecap="round"/>
  
  <!-- Right grip -->
  <path d="M 150 130 Q 158 137 155 148" fill="none" stroke="#10b981" stroke-width="12" stroke-linecap="round"/>
  
  <!-- D-pad (left side) -->
  <rect x="72" y="127" width="12" height="6" rx="1.5" fill="#1a202c"/>
  <rect x="75" y="124" width="6" height="12" rx="1.5" fill="#1a202c"/>
  
  <!-- Buttons (right side) -->
  <circle cx="120" cy="125" r="4.5" fill="#ef4444"/>
  <circle cx="132" cy="125" r="4.5" fill="#3b82f6"/>
  <circle cx="126" cy="119" r="4.5" fill="#fbbf24"/>
  <circle cx="126" cy="131" r="4.5" fill="#10b981"/>
</svg>